<?xml version="1.0" encoding="utf-8"?>
<!-- Generator: Adobe Illustrator 19.0.0, SVG Export Plug-In . SVG Version: 6.00 Build 0)  -->
<svg version="1.1" id="Layer_1" xmlns="http://www.w3.org/2000/svg" xmlns:xlink="http://www.w3.org/1999/xlink" x="0px" y="0px"
	 viewBox="-49 141 512 512" style="enable-background:new -49 141 512 512;" xml:space="preserve">
<style type="text/css">
	.st0{fill:#0E3991;}
</style>
<g>
	<path class="st0" d="M343.6,269.1c4.7,0,8.5-3.8,8.5-8.5v-34.1h52.8c4.7,13.3,19.3,20.3,32.7,15.6s20.3-19.3,15.6-32.7
		c-4.7-13.3-19.3-20.3-32.7-15.6c-7.3,2.6-13,8.3-15.6,15.6h-61.3c-4.7,0-8.5,3.8-8.5,8.5V252h-85.8c-1-11.8-4-23.4-8.9-34.1h60.6
		c4.7,0,8.5-3.8,8.5-8.5v-34.1h44.2c4.7,13.3,19.3,20.3,32.7,15.6c13.3-4.7,20.3-19.3,15.6-32.7s-19.3-20.3-32.7-15.6
		c-7.3,2.6-13,8.3-15.6,15.6h-52.8c-4.7,0-8.5,3.8-8.5,8.5v34.1h-59.7c-0.7,0.1-1.4,0.2-2,0.4c-32.6-46-96.4-56.8-142.4-24.2
		c-14.7,10.4-26.4,24.6-33.9,41c-0.3,0-0.5-0.2-0.9-0.2h-68.3v-27.2c13.3-4.7,20.3-19.3,15.6-32.7c-4.7-13.3-19.3-20.3-32.7-15.6
		c-13.3,4.7-20.3,19.3-15.6,32.7c2.6,7.3,8.3,13,15.6,15.6v35.7c0,4.7,3.8,8.5,8.5,8.5h71.7c-2.2,8.4-3.4,17-3.4,25.6h-68.3
		c-4.7,0-8.5,3.8-8.5,8.5v52.8c-13.3,4.7-20.3,19.3-15.6,32.7c4.7,13.3,19.3,20.3,32.7,15.6c13.3-4.7,20.3-19.3,15.6-32.7
		c-2.6-7.3-8.3-13-15.6-15.6v-44.2h61.1c3.2,19,11.7,36.8,24.6,51.2H27.9c-4.7,0-8.5,3.8-8.5,8.5v85.3H0.7
		c-4.7-13.3-19.3-20.3-32.7-15.6s-20.3,19.3-15.6,32.7c4.7,13.3,19.3,20.3,32.7,15.6c7.3-2.6,13-8.3,15.6-15.6h27.2
		c4.7,0,8.5-3.8,8.5-8.5v-85.3h54.3c7,4.6,14.5,8.4,22.4,11.1v59l-27.7,6.9c-3.2,0.8-5.6,3.4-6.3,6.6l-8.5,42.7
		c-0.1,0.6-0.2,1.1-0.2,1.7v76.8c0,2.3,0.9,4.4,2.5,6l25.3,25.3l32,39.9v22.6c0,4.7,3.8,8.5,8.5,8.5H335c4.7,0,8.5-3.8,8.5-8.5
		v-22.1l40.2-40.2c1.6-1.6,2.5-3.8,2.5-6V388.5c0-18.8-15.3-34.1-34.2-34.1c-9.8,0-19.1,4.2-25.6,11.6c-12.4-14.1-34-15.5-48.1-3.1
		c-1.1,1-2.1,2-3.1,3.1c-12.4-14.1-34-15.5-48.1-3.1c-1.1,1-2.1,2-3.1,3.1c-10.7-12.2-28.6-15.1-42.7-7V357
		c26.1-9.3,47.3-28.8,58.9-54c0.3,0.1,0.6,0.1,0.9,0.2h163.7c4.7,13.3,19.3,20.3,32.7,15.6s20.3-19.3,15.6-32.7
		c-4.7-13.3-19.3-20.3-32.7-15.6c-7.3,2.6-13,8.3-15.6,15.6H246.4c1.5-5.6,2.4-11.3,2.9-17.1H343.6z M428.9,209.4
		c4.7,0,8.5,3.8,8.5,8.5c0,4.7-3.8,8.5-8.5,8.5s-8.5-3.8-8.5-8.5C420.3,213.2,424.2,209.4,428.9,209.4z M377.7,158.2
		c4.7,0,8.5,3.8,8.5,8.5s-3.8,8.5-8.5,8.5c-4.7,0-8.5-3.8-8.5-8.5S373,158.2,377.7,158.2z M-23.3,158.2c4.7,0,8.5,3.8,8.5,8.5
		s-3.8,8.5-8.5,8.5s-8.5-3.8-8.5-8.5S-28,158.2-23.3,158.2z M-23.3,354.4c-4.7,0-8.5-3.8-8.5-8.5s3.8-8.5,8.5-8.5s8.5,3.8,8.5,8.5
		S-18.6,354.4-23.3,354.4z M-23.3,439.7c-4.7,0-8.5-3.8-8.5-8.5s3.8-8.5,8.5-8.5s8.5,3.8,8.5,8.5S-18.6,439.7-23.3,439.7z
		 M428.9,286.1c4.7,0,8.5,3.8,8.5,8.5s-3.8,8.5-8.5,8.5s-8.5-3.8-8.5-8.5S424.2,286.1,428.9,286.1z M147.3,243.5
		c-18.8,0-34.1,15.3-34.1,34.1v8.5c-14.1-18.8-10.3-45.6,8.5-59.7c18.8-14.1,45.6-10.3,59.7,8.5c11.4,15.2,11.4,36,0,51.2v-8.5
		C181.5,258.8,166.2,243.5,147.3,243.5z M198.5,371.5c9.4,0,17.1,7.6,17.1,17.1c0,4.7,3.8,8.5,8.5,8.5c4.7,0,8.5-3.8,8.5-8.5
		c0-9.4,7.6-17.1,17.1-17.1c9.4,0,17.1,7.6,17.1,17.1c0,4.7,3.8,8.5,8.5,8.5s8.5-3.8,8.5-8.5c0-9.4,7.6-17.1,17.1-17.1
		s17.1,7.6,17.1,17.1c0,4.7,3.8,8.5,8.5,8.5s8.5-3.8,8.5-8.5c0-9.4,7.6-17.1,17.1-17.1c9.4,0,17.1,7.6,17.1,17.1v184.2L329,612.8
		c-1.6,1.6-2.5,3.8-2.5,6v17.1H147.3v-17.1c0-1.9-0.7-3.8-1.9-5.3l-34.1-42.7c-0.2-0.2-0.4-0.5-0.6-0.7l-23.1-23.1v-72.4l7.3-36.5
		l18.3-4.6v48.8c0,4.7,3.8,8.5,8.5,8.5s8.5-3.8,8.5-8.5V277.6c0-9.4,7.6-17.1,17.1-17.1c9.4,0,17.1,7.6,17.1,17.1v110.9
		c0,4.7,3.8,8.5,8.5,8.5c4.7,0,8.5-3.8,8.5-8.5C181.5,379.1,189.1,371.5,198.5,371.5z M181.5,338.7v-29.3
		c27.1-18.8,33.7-56.1,14.9-83.1c-18.8-27.1-56.1-33.7-83.1-14.9c-27.1,18.8-33.7,56.1-14.9,83.1c4,5.8,9.1,10.8,14.9,14.9v29.2
		C70,319.8,50.3,269.5,69.1,226.4c18.8-43.2,69.1-62.9,112.3-44.1c43.2,18.8,62.9,69.1,44.1,112.3
		C216.9,314.3,201.2,330.1,181.5,338.7L181.5,338.7z"/>
</g>
</svg>
